# Blender v3.5.0 OBJ File: 'roads.blend'
# www.blender.org
mtllib GrassPlain.mtl
o GrassPlain
v 3.000000 0.550000 -3.000000
v 3.000000 -0.000000 -3.000000
v 0.000000 -0.000000 -3.000000
v 0.000000 0.550000 -3.000000
v 3.000000 0.000000 0.000000
v 3.000000 0.550000 -0.000000
v 0.000000 0.000000 0.000000
v 0.000000 0.550000 -0.000000
vt -3.000000 0.000000
vt -0.000000 0.550000
vt -3.000000 0.550000
vt 3.000000 -0.000000
vt 0.000000 0.550000
vt 0.000000 -0.000000
vt -0.000000 -0.000000
vt -3.000000 3.000000
vt -3.000000 0.000000
vt 3.000000 0.550000
vt 0.000000 0.550000
vt -3.000000 0.550000
vt -3.000000 0.000000
vt 0.000000 -0.000000
vt 3.000000 3.000000
vt 0.000000 3.000000
vt -0.000000 0.000000
vt 3.000000 0.550000
vt 0.000000 3.000000
vt 3.000000 0.000000
vt 3.000000 0.000000
vn 0.0000 0.0000 -1.0000
vn 1.0000 -0.0000 0.0000
vn 0.0000 -1.0000 0.0000
vn 0.0000 0.0000 1.0000
vn -1.0000 0.0000 0.0000
vn 0.0000 1.0000 -0.0000
usemtl Grass
s off
f 2/1/1 4/2/1 1/3/1
f 2/4/2 6/5/2 5/6/2
f 7/7/3 2/8/3 5/9/3
f 7/7/4 6/10/4 8/11/4
f 7/7/5 4/12/5 3/13/5
f 8/14/6 1/15/6 4/16/6
f 2/1/1 3/17/1 4/2/1
f 2/4/2 1/18/2 6/5/2
f 7/7/3 3/19/3 2/8/3
f 7/7/4 5/20/4 6/10/4
f 7/7/5 8/11/5 4/12/5
f 8/14/6 6/21/6 1/15/6
