# Blender v3.5.0 OBJ File: 'roads.blend'
# www.blender.org
mtllib roadTile_020.mtl
o roadTile_020
v 1.017620 -0.000000 -0.588471
v 0.960343 0.553783 -0.645746
v 0.761057 0.553783 -0.645746
v 0.703783 -0.000000 -0.588471
v 1.017620 -0.000000 -0.902305
v 0.960343 0.553783 -0.845031
v 0.703783 -0.000000 -0.902305
v 0.761057 0.553783 -0.845031
v 0.525027 0.553783 -0.163985
v 1.196370 0.553783 -0.163985
v 1.196370 0.553783 -1.326790
v 0.525027 0.553783 -1.326790
v 0.189354 0.553783 -0.745388
v 0.430350 0.907183 -0.000000
v 0.000000 0.907183 -0.745388
v 1.291050 0.907183 -0.000000
v 1.721400 0.907183 -0.745388
v 1.532050 0.553783 -0.745388
v 1.523440 2.149780 -0.745388
v 1.192070 2.149780 -0.171439
v 1.291050 0.907183 -1.490780
v 1.192070 2.149780 -1.319340
v 0.430350 0.907183 -1.490780
v 0.197961 2.149780 -0.745388
v 0.529331 2.149780 -1.319340
v 0.860700 2.622880 -0.745388
v 0.529331 2.149780 -0.171439
v 0.860700 2.149780 -0.745388
vt 0.960343 0.617277
vt 0.703783 0.060539
vt 1.017620 0.060539
vt 0.902305 -0.104688
vt 0.645746 0.452049
vt 0.588471 -0.104688
vt -0.703783 0.902305
vt -1.017620 0.588471
vt -0.703783 0.588471
vt -0.645746 0.629140
vt -0.902305 0.072402
vt -0.588471 0.072402
vt -0.703783 -0.092825
vt -0.960343 0.463912
vt -1.017620 -0.092825
vt 0.761057 0.617277
vt 0.845031 0.452049
vt -1.017620 0.902305
vt -0.845031 0.629140
vt -0.761057 0.463912
vt -0.761057 0.645746
vt -0.525027 0.163985
vt -0.761057 0.845031
vt -1.196370 0.163985
vt -0.960343 0.645746
vt 0.960343 0.845031
vt 0.761057 0.645746
vt 0.960343 0.645746
vt -0.960343 0.845031
vt -1.196370 1.326790
vt -0.525027 1.326790
vt -0.189354 0.745388
vt -0.550848 0.276441
vt 0.215175 0.666034
vt -0.645525 0.666034
vt 0.430350 0.822906
vt 1.196370 0.433313
vt 1.291050 0.822906
vt 0.645525 1.293520
vt 1.411550 0.903930
vt 1.506230 1.293520
vt 1.506230 0.745858
vt 0.744506 2.000230
vt 0.645525 0.745858
vt -0.215175 0.643984
vt 0.546545 1.898350
vt -0.116195 1.898350
vt -0.215175 1.607270
vt 0.550848 1.217670
vt 0.645525 1.607270
vt -1.532050 0.745388
vt -1.196370 1.060800
vt -0.430350 1.450400
vt -1.291050 1.450400
vt -1.411550 0.590186
vt -0.645525 0.979779
vt -1.506230 0.979779
vt -1.407240 2.102100
vt -0.645525 0.847733
vt -0.744506 2.102100
vt -0.744506 1.212090
vt -1.075880 1.955890
vt -1.407240 1.212090
vt 0.116195 1.787260
vt -0.215175 2.531060
vt -0.546545 1.787260
vt 1.075880 2.622880
vt 0.413136 2.149780
vt 1.075880 2.149780
vt 1.192070 1.499670
vt 0.860700 2.243480
vt 0.529331 1.499670
vt 1.407240 0.636915
vt 1.075880 1.380720
vt 0.744506 0.636915
vt 0.546545 0.061742
vt 0.215175 0.805543
vt -0.116195 0.061742
vt 1.738610 2.149780
vt -0.860700 1.093130
vt -1.192070 0.349328
vt -0.529331 0.349328
vt 0.860700 0.745388
vt 1.192070 1.319340
vt 0.529331 1.319340
vt -0.546545 2.203980
vt 0.215175 0.949608
vt 0.116195 2.203980
vt 1.291050 0.898671
vt 0.529331 2.153040
vt 0.430350 0.898671
vt 0.529331 0.171439
vt 1.192070 0.171439
vt -0.529331 1.949290
vt -1.291050 0.694921
vt -0.430350 0.694921
vt 0.761057 0.845031
vt 0.120498 0.276441
vt 0.525027 0.433313
vt 0.740202 0.903930
vt 1.407240 2.000230
vt 0.645525 0.643984
vt -0.120498 1.217670
vt -0.525027 1.060800
vt -0.740202 0.590186
vt -1.506230 0.847733
vt 0.197961 0.745388
vt -0.645525 0.949608
vt 1.192070 2.153040
vt 1.523440 0.745388
vt -1.192070 1.949290
vn 0.0000 0.1029 0.9947
vn 0.9947 0.1029 0.0000
vn 0.0000 -1.0000 0.0000
vn -0.9947 0.1029 0.0000
vn 0.0000 0.1029 -0.9947
vn 0.0000 1.0000 0.0000
vn -0.7856 -0.4209 0.4536
vn 0.0000 -0.4209 0.9071
vn 0.7856 -0.4209 0.4536
vn 0.8579 0.1367 0.4953
vn 0.8579 0.1367 -0.4953
vn 0.7856 -0.4209 -0.4535
vn 0.0000 -0.4209 -0.9071
vn -0.7856 -0.4209 -0.4535
vn -0.8579 0.1367 -0.4953
vn -0.5508 0.7716 -0.3180
vn -0.5508 0.7716 0.3180
vn 0.8660 0.0000 0.5000
vn 0.0000 0.7716 0.6361
vn 0.5508 0.7716 0.3180
vn 0.5508 0.7716 -0.3180
vn 0.0000 0.7716 -0.6361
vn -0.8579 0.1367 0.4953
vn 0.0000 0.1367 0.9906
vn 0.0000 0.1367 -0.9906
vn 0.7856 -0.4209 -0.4536
vn -0.7856 -0.4209 -0.4536
usemtl Alternate_Dirt
s off
f 2/1/1 4/2/1 1/3/1
f 5/4/2 2/5/2 1/6/2
f 7/7/3 1/8/3 4/9/3
f 3/10/4 7/11/4 4/12/4
f 7/13/5 6/14/5 5/15/5
f 2/1/1 3/16/1 4/2/1
f 5/4/2 6/17/2 2/5/2
f 7/7/3 5/18/3 1/8/3
f 3/10/4 8/19/4 7/11/4
f 7/13/5 8/20/5 6/14/5
usemtl Grass
f 3/21/3 9/22/3 8/23/3
f 9/22/3 3/21/3 10/24/3
f 10/24/3 3/21/3 2/25/3
f 6/26/6 3/27/6 2/28/6
f 6/29/3 11/30/3 2/25/3
f 8/23/3 11/30/3 6/29/3
f 8/23/3 12/31/3 11/30/3
f 9/22/3 12/31/3 8/23/3
f 12/31/3 9/22/3 13/32/3
f 13/33/7 14/34/7 15/35/7
f 14/36/8 10/37/8 16/38/8
f 16/39/9 18/40/9 17/41/9
f 17/42/10 20/43/10 16/44/10
f 17/45/11 22/46/11 19/47/11
f 17/48/12 11/49/12 21/50/12
f 10/24/3 11/30/3 18/51/3
f 10/24/3 2/25/3 11/30/3
f 11/52/13 23/53/13 21/54/13
f 12/55/14 15/56/14 23/57/14
f 25/58/15 15/59/15 24/60/15
f 24/61/16 26/62/16 25/63/16
f 27/64/17 26/65/17 24/66/17
f 26/67/18 27/68/18 28/69/18
f 20/70/19 26/71/19 27/72/19
f 19/73/20 26/74/20 20/75/20
f 22/76/21 26/77/21 19/78/21
f 22/79/18 26/67/18 28/69/18
f 26/80/22 22/81/22 25/82/22
f 28/83/6 22/84/6 25/85/6
f 24/86/23 14/87/23 27/88/23
f 16/89/24 27/90/24 14/91/24
f 28/83/6 27/92/6 20/93/6
f 25/94/25 21/95/25 23/96/25
f 6/26/6 8/97/6 3/27/6
f 13/33/7 9/98/7 14/34/7
f 14/36/8 9/99/8 10/37/8
f 16/39/9 10/100/9 18/40/9
f 17/42/10 19/101/10 20/43/10
f 17/45/11 21/102/11 22/46/11
f 17/48/26 18/103/26 11/49/26
f 11/52/13 12/104/13 23/53/13
f 12/55/27 13/105/27 15/56/27
f 25/58/15 23/106/15 15/59/15
f 25/85/6 24/107/6 28/83/6
f 24/107/6 27/92/6 28/83/6
f 24/86/23 15/108/23 14/87/23
f 16/89/24 20/109/24 27/90/24
f 20/93/6 19/110/6 28/83/6
f 19/110/6 22/84/6 28/83/6
f 25/94/25 22/111/25 21/95/25
