# Blender v3.5.0 OBJ File: 'roads.blend'
# www.blender.org
mtllib Water.mtl
o Water
v 0.000000 0.455000 -3.000000
v 0.000000 -0.000000 -3.000000
v 0.000000 0.000000 0.000000
v 0.000000 0.455000 -0.000000
v 3.000000 0.455000 -3.000000
v 3.000000 -0.000000 -3.000000
v 3.000000 0.455000 -0.000000
v 3.000000 0.000000 0.000000
vt -3.000000 -0.000000
vt -0.000000 0.455000
vt -3.000000 0.455000
vt -3.000000 -0.000000
vt -0.000000 0.455000
vt -3.000000 0.455000
vt 0.000000 0.000000
vt 3.000000 0.455000
vt 0.000000 0.455000
vt -0.000000 0.000000
vt 3.000000 0.455000
vt -3.000000 -0.000000
vt -0.000000 3.000000
vt -3.000000 3.000000
vt 3.000000 -0.000000
vt 0.000000 3.000000
vt -0.000000 0.000000
vt -0.000000 -0.000000
vt 3.000000 0.000000
vt 3.000000 0.000000
vt 3.000000 3.000000
vn -1.0000 0.0000 0.0000
vn 0.0000 0.0000 -1.0000
vn 1.0000 0.0000 0.0000
vn 0.0000 0.0000 1.0000
vn 0.0000 -1.0000 0.0000
vn 0.0000 1.0000 -0.0000
usemtl Water
s off
f 2/1/1 4/2/1 1/3/1
f 6/4/2 1/5/2 5/6/2
f 8/7/3 5/8/3 7/9/3
f 3/10/4 7/11/4 4/2/4
f 8/12/5 2/13/5 6/14/5
f 7/15/6 1/16/6 4/17/6
f 2/1/1 3/10/1 4/2/1
f 6/4/2 2/18/2 1/5/2
f 8/7/3 6/19/3 5/8/3
f 3/10/4 8/20/4 7/11/4
f 8/12/5 3/10/5 2/13/5
f 7/15/6 5/21/6 1/16/6
